<svg xmlns="http://www.w3.org/2000/svg" width="3" height="360" fill="none" viewBox="0 0 3 360">
    <path fill="#F2D38B" fill-rule="evenodd" d="M1.5 0A1.5 1.5 0 0 1 3 1.5v.992a1.5 1.5 0 1 1-3 0V1.5A1.5 1.5 0 0 1 1.5 0zm0 10.908a1.5 1.5 0 0 1 1.5 1.5v1.984a1.5 1.5 0 0 1-3 0v-1.984a1.5 1.5 0 0 1 1.5-1.5zm0 11.9a1.5 1.5 0 0 1 1.5 1.5v1.983a1.5 1.5 0 1 1-3 0v-1.983a1.5 1.5 0 0 1 1.5-1.5zm0 11.9a1.5 1.5 0 0 1 1.5 1.5v1.983a1.5 1.5 0 0 1-3 0v-1.983a1.5 1.5 0 0 1 1.5-1.5zm0 11.9a1.5 1.5 0 0 1 1.5 1.5v1.983a1.5 1.5 0 0 1-3 0v-1.983a1.5 1.5 0 0 1 1.5-1.5zm0 11.9a1.5 1.5 0 0 1 1.5 1.5v1.983a1.5 1.5 0 0 1-3 0v-1.983a1.5 1.5 0 0 1 1.5-1.5zm0 11.9a1.5 1.5 0 0 1 1.5 1.5v1.983a1.5 1.5 0 0 1-3 0v-1.983a1.5 1.5 0 0 1 1.5-1.5zm0 11.9a1.5 1.5 0 0 1 1.5 1.5v1.983a1.5 1.5 0 0 1-3 0v-1.983a1.5 1.5 0 0 1 1.5-1.5zm0 11.9a1.5 1.5 0 0 1 1.5 1.5v1.983a1.5 1.5 0 1 1-3 0v-1.983a1.5 1.5 0 0 1 1.5-1.5zm0 11.9a1.5 1.5 0 0 1 1.5 1.5v1.983a1.5 1.5 0 1 1-3 0v-1.983a1.5 1.5 0 0 1 1.5-1.5zm0 11.9a1.5 1.5 0 0 1 1.5 1.5v1.983a1.5 1.5 0 0 1-3 0v-1.983a1.5 1.5 0 0 1 1.5-1.5zm0 11.9a1.5 1.5 0 0 1 1.5 1.5v1.983a1.5 1.5 0 0 1-3 0v-1.983a1.5 1.5 0 0 1 1.5-1.5zm0 11.9a1.5 1.5 0 0 1 1.5 1.5v1.983a1.5 1.5 0 0 1-3 0v-1.983a1.5 1.5 0 0 1 1.5-1.5zm0 11.9a1.5 1.5 0 0 1 1.5 1.5v1.983a1.5 1.5 0 0 1-3 0v-1.983a1.5 1.5 0 0 1 1.5-1.5zm0 11.899a1.5 1.5 0 0 1 1.5 1.5v1.984a1.5 1.5 0 0 1-3 0v-1.984a1.5 1.5 0 0 1 1.5-1.5zm0 11.9a1.5 1.5 0 0 1 1.5 1.5v1.984a1.5 1.5 0 0 1-3 0v-1.984a1.5 1.5 0 0 1 1.5-1.5zm0 11.9a1.5 1.5 0 0 1 1.5 1.5v1.984a1.5 1.5 0 0 1-3 0v-1.984a1.5 1.5 0 0 1 1.5-1.5zm0 11.9a1.5 1.5 0 0 1 1.5 1.5v1.984a1.5 1.5 0 0 1-3 0v-1.984a1.5 1.5 0 0 1 1.5-1.5zm0 11.9a1.5 1.5 0 0 1 1.5 1.5v1.984a1.5 1.5 0 0 1-3 0v-1.984a1.5 1.5 0 0 1 1.5-1.5zm0 11.9a1.5 1.5 0 0 1 1.5 1.5v1.984a1.5 1.5 0 0 1-3 0v-1.984a1.5 1.5 0 0 1 1.5-1.5zm0 11.9a1.5 1.5 0 0 1 1.5 1.5v1.983a1.5 1.5 0 1 1-3 0v-1.983a1.5 1.5 0 0 1 1.5-1.5zm0 11.9a1.5 1.5 0 0 1 1.5 1.5v1.983a1.5 1.5 0 1 1-3 0v-1.983a1.5 1.5 0 0 1 1.5-1.5zm0 11.9a1.5 1.5 0 0 1 1.5 1.5v1.983a1.5 1.5 0 1 1-3 0v-1.983a1.5 1.5 0 0 1 1.5-1.5zm0 11.9a1.5 1.5 0 0 1 1.5 1.5v1.983a1.5 1.5 0 1 1-3 0v-1.983a1.5 1.5 0 0 1 1.5-1.5zm0 11.9a1.5 1.5 0 0 1 1.5 1.5v1.983a1.5 1.5 0 1 1-3 0v-1.983a1.5 1.5 0 0 1 1.5-1.5zm0 11.9a1.5 1.5 0 0 1 1.5 1.5v1.983a1.5 1.5 0 1 1-3 0v-1.983a1.5 1.5 0 0 1 1.5-1.5zm0 11.9a1.5 1.5 0 0 1 1.5 1.5v1.983a1.5 1.5 0 1 1-3 0v-1.983a1.5 1.5 0 0 1 1.5-1.5zm0 11.9a1.5 1.5 0 0 1 1.5 1.5v1.983a1.5 1.5 0 0 1-3 0v-1.983a1.5 1.5 0 0 1 1.5-1.5zm0 11.9a1.5 1.5 0 0 1 1.5 1.5v1.983a1.5 1.5 0 0 1-3 0v-1.983a1.5 1.5 0 0 1 1.5-1.5zm0 11.9a1.5 1.5 0 0 1 1.5 1.5v1.983a1.5 1.5 0 0 1-3 0v-1.983a1.5 1.5 0 0 1 1.5-1.5zm0 11.9a1.5 1.5 0 0 1 1.5 1.5v.991a1.5 1.5 0 1 1-3 0v-.991a1.5 1.5 0 0 1 1.5-1.5z" clip-rule="evenodd"/>
</svg>
