<svg xmlns="http://www.w3.org/2000/svg" width="40" height="40" fill="none" viewBox="0 0 40 40">
    <circle cx="20" cy="20" r="20" fill="#F68773"/>
    <path fill="#fff" d="M33.286 20.832c.06-.32.09-.587.104-.798a9.916 9.916 0 0 0-.012-1.025C33.058 13.439 27.278 9 20.195 9 12.909 9 7 13.7 7 19.496c0 5.329 4.991 9.729 11.457 10.406.396.041.68.398.637.794l-.275 2.477a.72.72 0 0 0 1.03.726c5.462-2.637 8.73-5.349 10.68-7.699.355-.427 1.512-2.049 1.748-2.475a8.86 8.86 0 0 0 1.009-2.893z"/>
    <path fill="#F68773" d="M12.94 21.622V17.2a.675.675 0 0 0-1.35 0v5.096c0 .372.302.674.675.674h2.7a.675.675 0 0 0 0-1.35H12.94zM17.104 22.972h-.295a.528.528 0 0 1-.528-.528v-5.39c0-.292.237-.528.528-.528h.295c.291 0 .528.236.528.528v5.39a.529.529 0 0 1-.528.528zM22.558 17.201v3.113s-2.695-3.516-2.736-3.562a.672.672 0 0 0-.53-.226c-.367.014-.648.335-.648.703v5.068a.675.675 0 0 0 1.35 0v-3.094s2.736 3.546 2.776 3.584a.67.67 0 0 0 .457.185c.375.003.68-.329.68-.704V17.2a.675.675 0 1 0-1.349.001zM28.97 17.2a.675.675 0 0 0-.675-.674h-2.7a.675.675 0 0 0-.675.675v5.096c0 .372.302.674.675.674h2.7a.675.675 0 0 0 0-1.35H26.27v-1.197h2.025a.675.675 0 0 0 0-1.35H26.27v-1.198h2.025a.676.676 0 0 0 .675-.675z"/>
</svg>
