<svg xmlns="http://www.w3.org/2000/svg" width="154" height="50" fill="none" viewBox="0 0 154 50">
    <path fill="#F29D3A" d="M.492.743L5.72.867 13.9.743c1.475 0 3.074.124 4.735.371 3.752.619 6.52 2.166 8.426 4.58 1.906 2.413 2.89 5.197 3.013 8.415.062 1.609-.061 3.094-.43 4.455-.861 3.59-2.522 6.374-4.92 8.354-2.522 2.104-5.782 3.094-9.656 3.094-.43 0-.861 0-1.292-.061l-4.243-.186-2.522-.248-6.15.062-.307-.247v-.186c0-.124.061-.248.123-.248l1.783-.185c.43-.062.738-.557.923-1.485.184-1.733.307-3.032.307-3.899V4.084c0-1.052-.184-1.732-.553-2.042-.615-.371-.984-.557-1.292-.557H.308C.062 1.362 0 1.238 0 1.052.185.805.308.681.492.742zm7.872 4.27c-.123 3.589-.184 6.93-.184 10.024 0 6.25.123 9.963.43 11.139.308 1.052 1.6 1.732 3.998 1.918.492.062.922.062 1.414.062 1.538 0 3.014-.248 4.49-.68 1.168-.372 2.214-.929 3.136-1.733a9.18 9.18 0 0 0 2.645-3.713c.43-1.176.738-2.723.861-4.641 0-.433.062-.928.062-1.362 0-1.918-.246-3.589-.8-5.136a13.117 13.117 0 0 0-2.091-3.898 10.316 10.316 0 0 0-2.46-2.228A16.323 16.323 0 0 0 12.792 2.6c-2.03-.185-3.382-.062-4.059.31l-.307.309-.062 1.795z"/>
    <path fill="#F29D3A" d="M30.382 5.012l2.46.062h2.337l2.214-.062.307.124c0 .186 0 .31-.061.371-.677.062-1.23.124-1.538.31-.369.185-.553.866-.553 2.104v14.294c0 1.3.123 2.042.43 2.228l.308.247 2.03.248c.06.062.06.123.06.185s0 .124-.06.186l-.431.124-4.305-.062-3.321.062-.185-.186v-.186l.185-.123c.676 0 1.107-.062 1.291-.124.308-.124.492-.433.554-.866.184-1.547.246-2.6.184-3.218l-.061-13.861a2.1 2.1 0 0 0-.43-.99l-.37-.186-1.291-.124c-.123-.062-.185-.124-.185-.247v-.124l.43-.186zM49.078 5.26c.308-.062.492.124.677.557l6.334 16.398c.308.743.616 1.362.985 1.733.369.433.676.68.922.805.43.123.922.185 1.415.185l.123.124c0 .186-.123.31-.308.31l-.861.061c-.861.062-1.722.062-2.46.062-1.968 0-2.952-.124-2.952-.247V25a.557.557 0 0 1 .43-.186c.123-.061.185-.185.185-.37l-2.091-5.756-.123-.062h-5.658l-.185.31-1.476 4.084-.184.866c0 .495.061.867.246.928l.307.124c.677 0 1.046 0 1.107.062v.186c0 .123-.061.185-.184.247h-6.15l-.185-.124.062-.247L39.3 25c.615.062 1.23-.062 1.722-.433.369-.248.8-.99 1.23-2.228l6.396-16.46c.123-.31.246-.495.43-.619zm-2.89 11.943v.124h4.735l-2.337-6.745-.184.124-2.214 6.497zM65.13 5.013h.184c.123 0 .246.062.37.185.06 0 .614 1.176 1.599 3.404l5.596 12.005L79.952 5.26c.123-.124.246-.247.369-.247.061 0 .123 0 .246.062.123.185.246.309.246.495l2.398 16.955c.123 1.052.43 1.733.923 2.042.43.186.738.31 1.045.31l1.107.061.123.124c0 .186-.123.31-.307.371-4.182 0-6.273-.123-6.273-.371v-.186l.246-.185c.123-.062.184-.186.184-.248v-.804l-1.537-11.572h-.123l-5.843 12.686c-.246.556-.492.804-.615.68-.123.062-.553-.557-1.169-1.856l-2.521-5.198-2.645-6.003h-.123L64.33 23.392c-.061.68 0 1.114.308 1.3.246.123.8.247 1.722.31.123.061.123.123.123.247v.123l-.246.186c-1.107 0-2.091-.062-3.075-.062s-1.907 0-2.768.062l-.184-.186c0-.123 0-.247.061-.247l1.23-.186c.43-.185.738-.928.923-2.104L64.945 5.57c.062-.372.123-.557.185-.557zM93.912 5.012c1.845-.123 3.444.124 4.797.62 3.875 1.36 5.905 4.207 6.151 8.539v.742c0 3.094-.984 5.693-2.952 7.674-.923.99-2.091 1.732-3.445 2.227-1.107.433-2.275.681-3.444.681-1.722.062-3.198-.124-4.49-.619-3.874-1.485-5.903-4.455-6.272-8.973 0-.309-.062-.556-.062-.866 0-2.723.923-5.074 2.83-7.116 1.783-1.795 4.058-2.785 6.887-2.909zm-6.15 8.788c-.061.804 0 1.67.123 2.537.185 1.3.554 2.475 1.107 3.589.738 1.423 1.6 2.475 2.706 3.156.738.433 1.722.804 2.952.99 1.23.062 2.214-.062 3.014-.433 2.153-.99 3.321-3.218 3.567-6.745 0-.434.061-.805.061-1.238 0-2.66-.615-4.827-1.783-6.498-1.169-1.67-2.89-2.66-4.982-2.97-1.291-.062-2.275.124-3.075.433-2.275 1.238-3.505 3.59-3.69 7.178zM108.058 5.012l5.535 6.126 3.567 3.651 4.982 5.446h.123l-.246-12.376c0-.99-.185-1.61-.554-1.919l-.553-.309-1.538-.124c-.061-.062-.061-.124-.061-.185 0-.062 0-.124.061-.186l.308-.062 4.12.062 2.153-.062.307.186-.061.31-.123.061c-.677 0-1.169.062-1.476.31l-.308.37c-.123.434-.246.99-.246 1.733l-.246 17.389c-.061.185-.123.31-.184.371-.246 0-.554-.062-.738-.31-1.169-1.175-2.337-2.289-3.506-3.465-2.091-2.104-4.182-4.27-6.211-6.559l-4.428-4.95.307 12.004c0 1.052.185 1.733.492 1.98l.246.186.738.186c.738 0 1.107 0 1.169.185a.477.477 0 0 1-.123.31.948.948 0 0 1-.492.124l-3.691-.062h-2.706c-.123 0-.184-.062-.184-.186s0-.247.061-.247c.185-.062.492-.124.984-.062l.615-.186c.431-.247.615-.99.677-2.228l.307-17.512h.923zM128.168 5.136l3.629.062 5.719-.062c1.046 0 2.153.062 3.322.31 2.583.433 4.551 1.485 5.904 3.217a9.902 9.902 0 0 1 2.091 5.879c.061 1.114-.062 2.166-.246 3.094-.615 2.537-1.722 4.455-3.444 5.879-1.784 1.423-4.059 2.165-6.766 2.165h-.922l-2.952-.185-1.722-.124-4.305.062-.185-.186c0-.123 0-.247.062-.247l1.291-.186c.308-.062.554-.371.677-1.052.123-1.176.184-2.104.184-2.723V7.488c0-.743-.123-1.176-.369-1.424-.43-.247-.676-.371-.861-.371l-1.291-.062c-.123-.062-.246-.124-.185-.247.123-.248.246-.31.369-.248zm5.474 2.97c-.062 2.537-.123 4.827-.123 6.993 0 4.393.123 6.992.307 7.797.185.742 1.107 1.175 2.768 1.361 2.644.248 4.736-.31 6.335-1.609.861-.742 1.476-1.609 1.845-2.599.307-.866.492-1.918.615-3.218 0-.309.061-.618.061-.928 0-1.361-.184-2.537-.553-3.589-.369-1.052-.861-1.98-1.476-2.723-.492-.618-1.107-1.175-1.722-1.547a10.742 10.742 0 0 0-4.921-1.547c-1.414-.123-2.398-.061-2.829.186l-.184.248-.123 1.175zM42.99 40.965c-.554 0-.984.248-1.292.743-.246.433-.369.928-.369 1.485V50h-.8c-.06-1.919-.799-2.909-2.213-2.909-.615 0-1.415.31-2.276.929-.307.185-.492.37-.676.433-1.476.866-2.891 1.3-4.182 1.3-1.538 0-2.953-.496-4.367-1.424-1.353-.928-2.337-2.042-3.014-3.465-.738-1.485-1.107-3.156-1.107-5.013 0-2.227.554-4.27 1.6-6.188 1.045-1.918 2.52-3.403 4.427-4.517 1.784-1.052 3.814-1.547 6.09-1.547 1.783 0 3.75.371 5.965.99v5.013h-1.169c-.184-1.61-.922-2.847-2.152-3.713-1.169-.805-2.522-1.238-4.182-1.238-2.399 0-4.367.866-5.782 2.599-1.353 1.609-2.03 3.713-2.03 6.188 0 2.6.677 4.889 1.969 6.869 1.476 2.227 3.506 3.341 5.965 3.341 1.292 0 2.46-.37 3.445-1.052 1.107-.804 1.66-1.856 1.66-3.094 0-1.67-1.045-2.475-3.136-2.475h-.615v-.804h8.24v.742zM58.919 37.376h-1.353c0-2.351-.677-3.465-1.968-3.465-1.66 0-2.952 1.423-3.875 4.27-.738 2.166-1.107 4.27-1.107 6.312 0 1.608.307 2.66.922 3.155.554.434 1.661.681 3.26.681v.928h-9.84v-.928c1.045 0 1.845-.247 2.275-.68.43-.434.677-1.176.677-2.29V35.334c0-1.114-.43-1.67-1.23-1.67-.37 0-.923.123-1.66.433v-.929L50 31.126h.861v6.25c2.399-4.146 4.613-6.188 6.642-6.188.43 0 .923.124 1.476.31v5.878h-.061zM77.43 46.906c-1.906 1.918-3.505 2.846-4.735 2.846-1.107 0-1.66-.618-1.66-1.856V45.05c-3.014 3.094-5.352 4.64-7.135 4.64-.984 0-1.845-.37-2.46-1.175-.615-.743-.923-1.67-.923-2.661 0-2.785 3.506-5.755 10.517-8.973v-2.29c0-.742-.184-1.299-.615-1.732-.43-.433-.984-.68-1.722-.68-1.414 0-2.645.742-3.629 2.227-.799 1.238-1.291 2.66-1.475 4.208h-1.23v-4.58c2.89-1.917 5.658-2.908 8.24-2.908 1.23 0 2.092.248 2.584.805s.8 1.423.8 2.723v11.942c0 .558.245.867.799.867.492 0 1.414-.557 2.706-1.733v1.176h-.062zm-6.15-8.416a14.444 14.444 0 0 0-4.92 1.98c-1.968 1.238-2.89 2.6-2.89 4.146 0 .805.245 1.424.737 1.919.493.495 1.108.68 1.907.68 1.845 0 3.198-1.052 4.12-3.156.677-1.608.985-3.465 1.046-5.569zM87.516 49.195h-8.733v-.928c1.046 0 1.845-.248 2.275-.68.431-.434.677-1.177.677-2.29V34.839c0-.805-.492-1.176-1.353-1.176-.308 0-.677.062-1.107.248-.184.061-.369.123-.43.185v-.99l4.858-1.918h.923v14.109c0 1.052.184 1.856.676 2.29.43.432 1.169.68 2.276.68v.928h-.062zM83.765 29.826l-.062.062c-.922.68-2.706 1.485-3.628.557-.37-.371-.554-.804-.554-1.3 0-2.97 5.35-2.537 7.134-1.918-.369-.185-2.337 2.104-2.89 2.6zM108.919 49.195h-6.642v-.928c.554 0 .8-.31.8-.928v-11.82c0-1.485-.615-2.227-1.845-2.227-1.968 0-3.629 1.423-4.92 4.331-1.046 2.352-1.6 4.641-1.6 6.931 0 1.361.185 2.29.554 2.785.43.618 1.292.866 2.522.928v.928h-8.61v-.928c1.045 0 1.783-.248 2.213-.68.431-.434.677-1.177.677-2.29v-9.778c0-1.237-.43-1.918-1.23-1.918-.307 0-.861.186-1.66.495v-.928l4.981-2.042h.8v6.312c1.353-1.795 2.46-3.156 3.382-4.023 1.6-1.546 3.075-2.29 4.49-2.29 2.152 0 3.198 1.362 3.198 4.147v10.025c0 1.052.246 1.856.676 2.29.431.432 1.169.68 2.276.68v.928h-.062zM122.88 43.812c0 1.67-.738 3.094-2.275 4.27a7.515 7.515 0 0 1-4.674 1.608c-1.353 0-2.891-.37-4.674-1.175v-5.322h1.291c.062 1.423.492 2.66 1.23 3.59.8 1.113 1.907 1.608 3.26 1.608.984 0 1.722-.31 2.398-.866.615-.557.923-1.362.923-2.29 0-.928-.369-1.794-1.169-2.537-.369-.371-1.168-.928-2.337-1.67-1.537-.99-2.337-1.486-2.398-1.548-1.046-.742-1.722-1.361-2.03-1.918-.307-.557-.492-1.176-.492-1.733 0-1.485.677-2.66 2.091-3.589 1.23-.804 2.583-1.176 4.121-1.176 1.168 0 2.398.248 3.751.743v5.012h-1.353c0-1.237-.369-2.29-.984-3.218-.738-.99-1.66-1.547-2.829-1.547-.676 0-1.23.186-1.599.62-.43.432-.615.99-.615 1.608 0 .805.369 1.547 1.169 2.29.369.31 1.045.804 2.152 1.547 2.03 1.3 3.137 2.042 3.383 2.227 1.045 1.176 1.66 2.29 1.66 3.466z"/>
    <path fill="#F29D3A" d="M91.821 21.41c.123-.123-.369-.742-.738-1.794a4.853 4.853 0 0 1-.246-1.98c0-.742.185-1.609.308-2.599.061-.495.061-.99.061-1.423v-.31c0-.185-.061-.247-.061-.37-.062-.248-.062-.434-.185-.681-.246-.867-.615-1.424-.615-1.919v-.371c.062-.124.062-.186.123-.31.062-.185.123-.37.246-.556.185-.31.185-.495.185-.557-.062-.062-.246.062-.492.31-.123.123-.308.247-.43.494a1.295 1.295 0 0 1-.247.371c-.061.186-.061.31-.123.495-.123.743.246 1.547.43 2.228.062.186.062.371.124.557l.061.248v.309c0 .433 0 .805-.061 1.3-.062.928-.246 1.794-.185 2.66 0 .867.246 1.671.554 2.29.492 1.238 1.23 1.67 1.291 1.609zM94.958 22.401c.061-.062-.061-.247-.184-.495-.185-.247-.493-.557-.739-.99-.307-.433-.615-.928-.8-1.547-.184-.619-.245-1.3-.184-2.042.062-.805.185-1.547.246-2.29.062-.742 0-1.423-.123-1.98-.123-.557-.307-.99-.492-1.238-.184-.247-.307-.37-.369-.37-.061 0-.061.185 0 .494.062.31.123.743.185 1.238 0 .495 0 1.114-.062 1.794-.061.681-.246 1.424-.307 2.29-.062.866 0 1.733.369 2.475.307.743.738 1.3 1.168 1.671.37.433.8.68 1.046.804.061.186.246.248.246.186zM95.88 18.874c.123 0 .37-.557.554-1.485.184-.928.43-2.29.307-3.837-.123-1.608-.86-2.846-1.414-3.712-.615-.743-1.046-1.176-1.169-1.052-.123.061.123.618.554 1.485.369.866.86 1.98.984 3.403.123 1.361 0 2.723 0 3.651 0 .928.061 1.547.184 1.547zM97.725 22.587c.062.062.185 0 .492-.185.246-.186.492-.557.738-1.052.43-.99.738-2.414.738-3.96.062-3.157-.738-5.632-.984-5.508-.246.062 0 2.475-.061 5.507-.062 1.485-.185 2.847-.43 3.713-.124.433-.247.805-.37 1.052-.061.186-.123.371-.123.433zM99.571 11.572c.061-.185-.246-.371-.677-.804-.43-.372-.86-1.052-1.476-1.795-.307-.371-.676-.742-1.107-.99-.43-.247-.86-.371-1.23-.371-.369 0-.676.062-.8.124-.184.061-.245.123-.245.247 0 .062.123.124.307.186.185.062.43.123.677.185.492.186 1.045.62 1.66 1.3.554.68 1.23 1.423 1.845 1.732.615.372 1.046.31 1.046.186zM93.175 10.087c.246-.186 0-.805-.185-1.361-.123-.31-.184-.557-.246-.743-.061-.248-.184-.433-.307-.433s-.308.124-.43.371c-.124.31-.124.743 0 1.176.368.804.983 1.114 1.168.99zM95.573 22.587c.123.123.307.061.615-.124.246-.186.553-.62.553-1.114.062-.495-.123-.928-.307-1.238-.185-.247-.37-.371-.492-.31-.123.063-.185.248-.185.558-.061.247-.061.557-.061.866-.062.31-.123.557-.123.805-.062.247-.123.433 0 .556zM150.494 7.054c-1.906 0-3.505-1.609-3.505-3.527 0-1.98 1.599-3.527 3.567-3.527C152.462 0 154 1.609 154 3.527a3.515 3.515 0 0 1-3.506 3.527zm2.829-3.527c0-1.547-1.291-2.846-2.829-2.784-1.476 0-2.767 1.3-2.767 2.846 0 1.547 1.291 2.785 2.829 2.785 1.476 0 2.767-1.238 2.767-2.847z"/>
    <path fill="#F29D3A" d="M149.204 1.918h1.968c.369 0 .676.186.799.557.123.372 0 .743-.369 1.176.554.371.308.99.492 1.547h-.861c0-.186-.061-.31-.061-.495-.062-.557-.185-.68-.738-.68h-.369V5.26h-.861V1.918zm.799 1.362c.308 0 .554.062.861 0 .123 0 .246-.248.246-.371 0-.124-.184-.31-.246-.31-.246-.062-.553 0-.861 0v.68z"/>
</svg>
