<svg xmlns="http://www.w3.org/2000/svg" width="203" height="66" fill="none" viewBox="0 0 203 66">
    <path fill="#C8A320" d="M.649.978l6.89.163L18.323.978c1.945 0 4.053.163 6.242.49 4.945.815 8.594 2.855 11.107 6.036 2.513 3.181 3.81 6.852 3.972 11.094.081 2.12-.08 4.078-.567 5.873-1.135 4.73-3.324 8.401-6.486 11.012-3.324 2.773-7.62 4.078-12.728 4.078-.567 0-1.135 0-1.702-.081l-5.594-.245-3.324-.326-8.107.081-.405-.326v-.245c0-.163.08-.326.162-.326l2.35-.245c.568-.081.974-.734 1.217-1.957.243-2.285.405-3.997.405-5.14V5.383c0-1.387-.243-2.284-.73-2.692-.81-.49-1.297-.734-1.702-.734H.405C.081 1.794 0 1.631 0 1.387.243 1.06.405.896.649.977zm10.376 5.629a387.506 387.506 0 0 0-.243 13.214c0 8.239.162 13.133.568 14.683.405 1.387 2.108 2.284 5.27 2.529.648.081 1.215.081 1.864.081 2.027 0 3.972-.326 5.918-.897 1.54-.49 2.919-1.224 4.135-2.284a12.1 12.1 0 0 0 3.486-4.894c.567-1.55.973-3.59 1.135-6.118 0-.571.08-1.224.08-1.795 0-2.529-.324-4.73-1.053-6.77a17.288 17.288 0 0 0-2.757-5.14 13.601 13.601 0 0 0-3.242-2.936 21.517 21.517 0 0 0-9.323-2.855c-2.676-.244-4.46-.081-5.351.408l-.405.408-.082 2.366z"/>
    <path fill="#C8A320" d="M40.048 6.605l3.243.081h3.08l2.92-.081.405.163c0 .245 0 .408-.081.49-.892.081-1.622.163-2.027.407-.486.245-.73 1.142-.73 2.774v18.843c0 1.712.162 2.691.568 2.936l.405.326 2.675.327c.081.081.081.163.081.244 0 .082 0 .163-.08.245l-.568.163-5.675-.081-4.378.081-.243-.245v-.244l.243-.163c.892 0 1.46-.082 1.703-.163.405-.164.648-.572.73-1.142.242-2.04.324-3.426.242-4.242l-.08-18.272c-.082-.571-.325-.979-.568-1.305l-.486-.245-1.703-.163c-.162-.082-.243-.163-.243-.326V6.85l.567-.245zM64.694 6.933c.405-.082.648.163.891.734l8.35 21.616c.406.979.811 1.795 1.298 2.284.486.571.891.897 1.216 1.06a6.872 6.872 0 0 0 1.864.245l.162.163c0 .245-.162.408-.405.408l-1.135.082c-1.135.081-2.27.081-3.243.081-2.594 0-3.891-.163-3.891-.326v-.326a.734.734 0 0 1 .567-.245c.163-.081.244-.245.244-.49l-2.757-7.585-.162-.082h-7.458l-.243.408-1.946 5.384-.243 1.142c0 .652.08 1.142.324 1.223l.405.163c.892 0 1.378 0 1.46.082v.245c0 .163-.082.244-.244.326h-8.107l-.243-.163.081-.327.324-.081c.811.081 1.622-.082 2.27-.571.487-.326 1.054-1.305 1.622-2.937L64.126 7.75c.162-.408.324-.653.567-.816zm-3.81 15.743v.163h6.242l-3.081-8.891-.243.163-2.919 8.565zM85.853 6.605h.243c.162 0 .324.081.486.245.082 0 .811 1.55 2.108 4.486l7.378 15.825 9.323-20.23c.162-.163.324-.326.486-.326.081 0 .162 0 .324.081.163.245.325.408.325.653l3.161 22.35c.163 1.387.568 2.284 1.217 2.692.567.245.972.408 1.378.408l1.459.082.162.163c0 .245-.162.408-.405.49-5.513 0-8.269-.164-8.269-.49v-.245l.324-.245c.162-.081.243-.244.243-.326v-1.06l-2.027-15.254h-.162l-7.701 16.722c-.325.734-.649 1.06-.811.897-.162.082-.73-.734-1.54-2.447l-3.324-6.852-3.486-7.912h-.163L84.8 30.832c-.081.897 0 1.468.405 1.712.325.164 1.054.327 2.27.408.162.082.162.163.162.327v.163l-.324.244c-1.46 0-2.756-.081-4.053-.081-1.297 0-2.514 0-3.649.081l-.243-.244c0-.163 0-.327.081-.327l1.622-.244c.567-.245.973-1.224 1.216-2.774L85.61 7.34c.08-.49.162-.734.243-.734zM123.794 6.607c2.432-.163 4.54.164 6.323.816 5.108 1.795 7.783 5.547 8.107 11.257v.979c0 4.078-1.297 7.504-3.891 10.114-1.216 1.306-2.756 2.284-4.54 2.937-1.459.571-3 .897-4.54.897-2.27.082-4.216-.163-5.918-.816-5.107-1.957-7.783-5.872-8.269-11.827 0-.408-.081-.734-.081-1.142 0-3.59 1.216-6.689 3.729-9.38 2.351-2.366 5.351-3.671 9.08-3.835zm-8.107 11.583c-.081 1.06 0 2.203.162 3.345.243 1.713.73 3.263 1.459 4.73.973 1.877 2.108 3.264 3.567 4.161.973.571 2.27 1.06 3.892 1.305 1.621.082 2.918-.082 3.972-.57 2.838-1.306 4.378-4.242 4.702-8.892 0-.571.081-1.06.081-1.631 0-3.508-.81-6.363-2.351-8.565-1.54-2.203-3.81-3.508-6.566-3.916-1.703-.081-3 .163-4.054.571-3 1.632-4.621 4.731-4.864 9.462zM142.441 6.605l7.296 8.075 4.702 4.813 6.567 7.178h.162l-.324-16.314c0-1.305-.244-2.12-.73-2.529l-.73-.407-2.026-.164c-.082-.081-.082-.163-.082-.244 0-.082 0-.163.082-.245l.405-.082 5.432.082 2.837-.082.405.245-.081.408-.162.082c-.892 0-1.54.081-1.946.407l-.405.49a8.066 8.066 0 0 0-.324 2.284l-.324 22.921c-.082.245-.163.408-.244.49-.324 0-.729-.082-.972-.408-1.541-1.55-3.081-3.018-4.621-4.568-2.757-2.774-5.513-5.629-8.189-8.647l-5.837-6.525.406 15.824c0 1.387.243 2.284.648 2.61l.325.245.972.245c.973 0 1.46 0 1.541.245a.625.625 0 0 1-.162.408c-.163.081-.325.163-.649.163l-4.864-.082h-3.567c-.162 0-.243-.081-.243-.245 0-.163 0-.326.081-.326.243-.081.648-.163 1.297-.081l.81-.245c.568-.326.811-1.305.892-2.937l.406-23.084h1.216zM168.949 6.767l4.784.082 7.539-.082c1.378 0 2.838.082 4.378.408 3.405.571 5.999 1.958 7.783 4.242 1.702 2.202 2.675 4.812 2.756 7.749.081 1.468-.081 2.855-.324 4.078-.811 3.345-2.27 5.873-4.54 7.75-2.351 1.876-5.351 2.855-8.918 2.855h-1.216l-3.891-.245-2.27-.163-5.675.081-.243-.244c0-.163 0-.327.081-.327l1.702-.244c.406-.082.73-.49.892-1.387.162-1.55.243-2.773.243-3.59V9.868c0-.979-.162-1.55-.486-1.876-.568-.327-.892-.49-1.135-.49l-1.703-.081c-.162-.082-.324-.163-.243-.327.162-.326.324-.407.486-.326zm7.216 3.916c-.081 3.344-.162 6.362-.162 9.217 0 5.792.162 9.218.405 10.278.243.979 1.459 1.55 3.648 1.794 3.486.327 6.243-.407 8.35-2.12 1.135-.98 1.946-2.121 2.432-3.426.406-1.142.649-2.529.811-4.242 0-.408.081-.816.081-1.224 0-1.794-.243-3.344-.729-4.73-.487-1.387-1.135-2.61-1.946-3.59-.649-.815-1.459-1.55-2.27-2.039-1.865-1.142-4.054-1.876-6.486-2.04-1.864-.162-3.161-.08-3.729.245l-.243.327-.162 1.55zM56.668 53.997c-.73 0-1.297.326-1.703.979-.324.57-.486 1.223-.486 1.958v8.972h-1.054c-.081-2.528-1.054-3.834-2.919-3.834-.81 0-1.864.408-3 1.224-.405.245-.648.49-.891.571-1.946 1.142-3.81 1.713-5.513 1.713-2.026 0-3.891-.653-5.756-1.876-1.783-1.224-3.08-2.692-3.972-4.568-.973-1.958-1.46-4.16-1.46-6.607 0-2.937.73-5.629 2.108-8.157 1.379-2.529 3.324-4.487 5.837-5.955 2.351-1.387 5.027-2.04 8.026-2.04 2.351 0 4.946.49 7.864 1.306v6.607h-1.54c-.243-2.12-1.216-3.752-2.838-4.894-1.54-1.06-3.324-1.632-5.512-1.632-3.162 0-5.756 1.142-7.621 3.426-1.783 2.121-2.675 4.895-2.675 8.157 0 3.426.892 6.444 2.594 9.055 1.946 2.936 4.62 4.405 7.864 4.405 1.702 0 3.242-.49 4.54-1.387 1.459-1.06 2.189-2.447 2.189-4.079 0-2.202-1.379-3.263-4.135-3.263h-.81v-1.06h10.863v.979zM77.665 49.267h-1.783c0-3.1-.892-4.568-2.595-4.568-2.188 0-3.89 1.876-5.107 5.629-.973 2.854-1.46 5.628-1.46 8.32 0 2.12.406 3.507 1.217 4.16.73.57 2.189.897 4.297.897v1.224H59.262v-1.224c1.379 0 2.432-.326 3-.897.567-.571.892-1.55.892-3.018V46.575c0-1.468-.568-2.202-1.622-2.202-.486 0-1.216.163-2.189.57V43.72l6.567-2.691h1.135v8.238c3.162-5.465 6.08-8.157 8.756-8.157.567 0 1.216.163 1.945.408v7.75h-.08zM102.067 61.829c-2.513 2.529-4.621 3.752-6.242 3.752-1.46 0-2.19-.815-2.19-2.447v-3.752c-3.972 4.078-7.052 6.118-9.403 6.118-1.298 0-2.433-.49-3.243-1.55-.81-.979-1.216-2.203-1.216-3.508 0-3.67 4.62-7.586 13.863-11.827v-3.019c0-.978-.243-1.712-.811-2.283-.568-.572-1.297-.898-2.27-.898-1.865 0-3.486.98-4.783 2.937-1.054 1.631-1.703 3.507-1.946 5.547h-1.621v-6.037c3.81-2.528 7.458-3.834 10.863-3.834 1.622 0 2.757.327 3.405 1.06.649.735 1.054 1.877 1.054 3.59v15.743c0 .734.324 1.142 1.054 1.142.649 0 1.865-.734 3.567-2.284v1.55h-.081zM93.96 50.735c-2.432.49-4.54 1.387-6.486 2.61-2.594 1.632-3.81 3.427-3.81 5.466 0 1.06.324 1.876.973 2.529.648.652 1.46.897 2.513.897 2.432 0 4.216-1.387 5.432-4.16.892-2.121 1.297-4.568 1.378-7.342zM115.363 64.848h-11.512v-1.224c1.378 0 2.432-.326 3-.897.567-.571.892-1.55.892-3.018V45.923c0-1.06-.649-1.55-1.784-1.55-.405 0-.892.082-1.459.327-.243.081-.487.163-.568.244V43.64l6.405-2.528h1.216v18.598c0 1.386.243 2.447.892 3.018.567.57 1.54.897 2.999.897v1.224h-.081zM110.417 39.316l-.081.082c-1.216.897-3.567 1.958-4.783.734-.486-.49-.73-1.06-.73-1.713 0-3.915 7.054-3.344 9.405-2.529-.487-.244-3.081 2.774-3.811 3.426zM143.575 64.847h-8.755v-1.223c.729 0 1.053-.408 1.053-1.224V46.82c0-1.958-.81-2.937-2.432-2.937-2.594 0-4.783 1.877-6.485 5.71-1.378 3.1-2.108 6.118-2.108 9.136 0 1.795.243 3.018.73 3.671.567.816 1.702 1.142 3.323 1.224v1.223h-11.349v-1.223c1.378 0 2.351-.327 2.918-.898.568-.57.892-1.55.892-3.018V46.82c0-1.631-.568-2.529-1.622-2.529-.405 0-1.135.245-2.188.653V43.72l6.566-2.691h1.054v8.32c1.784-2.366 3.243-4.16 4.459-5.302 2.108-2.04 4.054-3.018 5.918-3.018 2.838 0 4.216 1.794 4.216 5.465v13.214c0 1.387.324 2.447.892 3.018.567.571 1.54.898 2.999.898v1.223h-.081zM161.978 57.75c0 2.202-.972 4.078-2.999 5.628a9.91 9.91 0 0 1-6.162 2.121c-1.783 0-3.81-.49-6.161-1.55v-7.015h1.703c.081 1.876.648 3.508 1.621 4.731 1.054 1.469 2.513 2.121 4.297 2.121 1.297 0 2.27-.408 3.161-1.142.811-.734 1.216-1.794 1.216-3.018 0-1.223-.486-2.365-1.54-3.344-.486-.49-1.54-1.224-3.081-2.203-2.026-1.305-3.08-1.957-3.161-2.039-1.378-.979-2.27-1.794-2.676-2.529-.405-.734-.648-1.55-.648-2.284 0-1.957.892-3.507 2.756-4.73 1.622-1.061 3.405-1.55 5.432-1.55 1.54 0 3.162.326 4.945.978v6.608h-1.783c0-1.632-.487-3.019-1.297-4.242-.973-1.305-2.189-2.04-3.73-2.04-.891 0-1.621.245-2.107.816-.568.571-.811 1.305-.811 2.121 0 1.06.486 2.04 1.54 3.018.487.408 1.378 1.06 2.838 2.04 2.675 1.712 4.134 2.691 4.458 2.936 1.379 1.55 2.189 3.018 2.189 4.568z"/>
    <path fill="#C8A320" d="M121.038 28.224c.162-.163-.486-.98-.973-2.366a6.403 6.403 0 0 1-.324-2.61c0-.979.243-2.121.405-3.426.081-.653.081-1.305.081-1.876v-.408c0-.245-.081-.326-.081-.49-.081-.326-.081-.57-.243-.897-.324-1.142-.811-1.876-.811-2.528v-.49c.081-.163.081-.245.162-.408.081-.245.163-.49.325-.734.243-.408.243-.652.243-.734-.081-.082-.324.082-.649.408-.162.163-.405.326-.567.652a1.708 1.708 0 0 1-.324.49c-.082.245-.082.408-.163.652-.162.98.325 2.04.568 2.937.081.245.081.49.162.734l.081.326v.408c0 .571 0 1.06-.081 1.713-.081 1.224-.324 2.366-.243 3.508 0 1.142.324 2.202.729 3.018.649 1.631 1.622 2.202 1.703 2.12zM125.171 29.528c.081-.082-.081-.327-.243-.653-.243-.326-.648-.734-.973-1.305-.405-.571-.81-1.224-1.054-2.04-.243-.815-.324-1.712-.243-2.691.081-1.06.243-2.04.325-3.018.081-.98 0-1.876-.163-2.61-.162-.735-.405-1.306-.648-1.632-.243-.326-.405-.49-.487-.49-.081 0-.081.245 0 .653.082.408.163.98.244 1.632 0 .652 0 1.468-.081 2.365-.081.897-.325 1.876-.406 3.018-.081 1.142 0 2.284.487 3.263.405.979.972 1.713 1.54 2.203a4.415 4.415 0 0 0 1.378 1.06c.081.245.324.326.324.245zM126.389 24.88c.162 0 .486-.734.73-1.957.243-1.224.567-3.018.405-5.058-.162-2.12-1.135-3.752-1.865-4.894-.81-.979-1.378-1.55-1.54-1.387-.162.082.162.816.73 1.958.486 1.142 1.135 2.61 1.297 4.486.162 1.795 0 3.59 0 4.813 0 1.224.081 2.04.243 2.04zM128.82 29.774c.081.081.243 0 .649-.245.324-.244.648-.734.972-1.387.568-1.305.973-3.18.973-5.22.081-4.16-.973-7.423-1.297-7.26-.324.082 0 3.263-.081 7.26-.081 1.958-.243 3.752-.567 4.894-.163.571-.325 1.06-.487 1.387-.081.245-.162.49-.162.57zM131.252 15.253c.082-.245-.324-.49-.891-1.06-.568-.49-1.135-1.387-1.946-2.366-.405-.49-.892-.979-1.459-1.305-.568-.326-1.135-.49-1.622-.49-.486 0-.891.082-1.054.164-.243.081-.324.163-.324.326 0 .081.162.163.406.245.243.081.567.163.891.244.649.245 1.378.816 2.189 1.713.73.897 1.622 1.876 2.432 2.284.811.49 1.378.408 1.378.245zM122.822 13.295c.324-.245 0-1.06-.243-1.795-.163-.408-.244-.734-.325-.979-.081-.326-.243-.57-.405-.57-.162 0-.405.162-.568.489-.162.408-.162.979 0 1.55.487 1.06 1.298 1.468 1.541 1.305zM125.982 29.771c.163.163.406.082.811-.163.324-.245.73-.816.73-1.468.081-.653-.162-1.224-.406-1.632-.243-.326-.486-.49-.648-.408-.162.082-.243.327-.243.734-.081.327-.081.735-.081 1.143-.082.407-.163.734-.163 1.06-.081.326-.162.57 0 .734zM198.379 9.299c-2.513 0-4.621-2.12-4.621-4.65 0-2.61 2.108-4.649 4.702-4.649 2.513 0 4.54 2.12 4.54 4.65 0 2.61-2.108 4.649-4.621 4.649zm3.729-4.65c0-2.039-1.702-3.752-3.729-3.67-1.946 0-3.648 1.713-3.648 3.752 0 2.04 1.702 3.67 3.729 3.67 1.946 0 3.648-1.63 3.648-3.751z"/>
    <path fill="#C8A320" d="M196.677 2.529h2.595c.486 0 .891.244 1.054.734.162.49 0 .979-.487 1.55.73.489.406 1.305.649 2.039h-1.135c0-.245-.081-.408-.081-.653-.081-.734-.244-.897-.973-.897h-.487v1.631h-1.135V2.53zm1.054 1.794c.406 0 .73.082 1.135 0 .162 0 .325-.326.325-.49 0-.162-.244-.407-.325-.407-.324-.082-.729 0-1.135 0v.897z"/>
</svg>
